<?xml version="1.0" encoding="utf-8"?>
<!-- Generator: Adobe Illustrator 24.2.3, SVG Export Plug-In . SVG Version: 6.00 Build 0)  -->
<svg version="1.1" id="Layer_1" xmlns="http://www.w3.org/2000/svg" xmlns:xlink="http://www.w3.org/1999/xlink" x="0px" y="0px"
	 viewBox="0 0 134.9 172.6" style="enable-background:new 0 0 134.9 172.6;" xml:space="preserve">
<style type="text/css">
	.st0{fill-rule:evenodd;clip-rule:evenodd;fill:#585858;}
	.st1{fill-rule:evenodd;clip-rule:evenodd;fill:#FFFFFF;}
	.st2{fill-rule:evenodd;clip-rule:evenodd;fill:#9C9C9C;}
	.st3{fill:#585858;}
	.st4{fill:#FFFFFF;}
</style>
<path class="st0" d="M15.6,45.4c-3.7-2.4-6.2-5.9-8.3-9.7c-0.2-0.3-0.4-0.6-0.5-1C6.2,33.4,6.6,32.8,8,33c1.6,0.2,3.1,0.2,4.7,0.2
	c0.8,0,1.6,0.1,2.4-0.1c0.3-0.6-0.3-1-0.5-1.4c-2.1-3.8-3.3-7.9-4.6-12c-0.2-0.5-0.3-1.1,0.2-1.4c0.5-0.4,1.1-0.2,1.7,0
	c2.9,1.1,5.9,1.2,8.9,1.5c0.2-0.7-0.3-1-0.6-1.4c-1.6-2.1-2.5-4.6-3.4-7c-0.2-0.5-0.4-1,0-1.5s0.9-0.2,1.4-0.1
	c7.5,2.1,15.1,2.2,22.5-0.5c2.1-0.8,4.1-1.6,6.2-2.5C53.2,4.1,59.8,3,66.5,2.2C72,1.5,77.3,1.7,82.6,3.4c1.4,0.4,2.8,1,4.2,1.5
	c0.1-1,0.2-2,0.4-2.9c0.3-1,0.9-1.2,1.6-0.5c1,1,1.9,2.1,2.8,3.2c0.5,0.6,0.9,0.8,1.7,0.3c0.7-0.5,1.5-0.9,2.4-1
	c1.1-0.2,1.5,0.3,1.3,1.4c0,0.1-0.1,0.1-0.1,0.2c-0.3,1.3-1.4,2.6-0.9,3.8c0.5,1,1.9,1.5,2.9,2.3c8.9,7.6,15.3,16.7,17.7,28.3
	c0.1,0.7,0.2,1.5,0.3,2.2c0,1.1,0,2.1,1.6,2.3c0.9,0.1,1.6,1.1,1.9,2c1.3,3.6,1.2,7.1-0.2,10.7c-0.5,1.4-1.5,2.5-3,2.8
	c-1.4,0.4-1.5,1.1-1.6,2.4c-0.7,11.6-4.3,22.1-12.4,30.7c-4.7,5-10.5,8.4-16.9,10.8c-3,1.1-2.4,0.5-2.5,3.5c0,1.3-0.3,2.8,0.2,3.9
	c0.5,1.2,2.2,1.2,3.4,1.7c9.4,4,17.6,9.8,25,16.8c4.9,4.7,8.7,10.3,11.7,16.4c2.9,5.9,5.5,12,7.4,18.3c0.7,2.4,1.3,4.9,1.6,7.4
	c0.1,0.9,0.1,1.4-1.3,1.3c-5.7-0.5-11.4-0.3-17.1,0c-4.3,0.2-8.6-0.3-12.9-0.4c-16.5-0.3-33-0.2-49.4,0c-14.8,0.1-29.5,0.6-44.3,0.5
	c-1.7,0-3.4-0.1-5.1-0.5c-1.4-0.3-1.8-0.8-1.6-2.2c2.2-19.2,9.3-35.8,25.8-47.3c6.6-4.6,13.6-8.5,21.2-11.2c1.8-0.6,1.7-0.6,1.8-2.4
	c0-1.3,0-2.5,0.2-3.8c0.1-1-0.1-1.6-1.1-2c-2-0.8-3.9-1.9-5.8-2.8c-3.7-1.7-6.8-4.3-9.5-7.2c-3.7-4-6.9-8.4-9.2-13.3
	c-2.5-5.6-4.3-11.5-5.1-17.7c0-0.4-0.1-0.7-0.1-1.1c0-1.3-0.3-2.1-1.9-2.2c-1.9-0.2-2.7-1.9-3.3-3.6C13.1,52.9,13.6,48.5,15.6,45.4z
	"/>
<path class="st1" d="M122.2,148.2c-37.8,0.4-75.6,1.3-113.5,2.2c-0.4-0.4-0.1-0.8,0.1-1.2c1.7-3.7,3.7-7.2,6.2-10.5
	c0.5-0.6,0.9-0.9,1.8-0.9c6.1,0.2,12.2,0.4,18.2,0.6c20.1,0.4,40.2-0.2,60.3-0.4c6.3-0.1,12.6-0.1,18.9-0.2c1.5,0,2.5,0.4,3.2,1.7
	c1.3,2.4,2.8,4.7,4.2,7.1C122,147,122.3,147.5,122.2,148.2z"/>
<path class="st1" d="M130.9,171.4c-3-0.6-5.9-0.2-8.7-0.2c-9.8,0.3-19.6-0.5-29.4-0.5c-14.1-0.1-28.2,0-42.3,0.2
	c-14.3,0.3-28.6,0.5-43,0.7c-1.6,0-3.2-0.2-5-0.6c0.5-2.7,1.1-5.4,1.6-8.1c0.1-0.5,0.4-0.7,0.9-0.7c0.9,0.1,1.8,0.1,2.7,0.1
	c20.9,0.1,41.7-0.6,62.5-0.7c11-0.1,22-0.2,32.9-0.4c7.6-0.1,15.1-0.3,22.7-0.3c1.8,0,1.8,0,2.5,1.7
	C129.5,165.5,130.3,168.3,130.9,171.4z"/>
<path class="st1" d="M81.5,113.4c0.2,1-0.1,1.8-0.7,2.6c-3,3.7-5.9,7.4-8.6,11.3c-1.5,2-3,4-5.2,5.6c-1-1-2-2-2.9-3
	c-2.1-2.3-4.2-4.6-6.3-6.9c-1.9-1.9-3-4.4-5-6.3c-0.5-0.4-0.6-1-0.6-1.6c0-1.6,0-3.3,0-4.9c0.7-0.3,1.3-0.1,1.9,0.1
	c7.7,2.5,15.4,2.5,23.3,0.8c0.2,0,0.4-0.1,0.7-0.1C81,110.5,81.1,110.5,81.5,113.4z"/>
<path class="st1" d="M23.6,129.3c4.1-3.8,8.5-6.6,12.9-9.2c0.6-0.4,1.2-0.5,1.9-0.5c4.2,0,8.5,0.1,12.7-0.3c0.7-0.1,1.2,0.1,1.5,0.7
	c1.8,3,4.2,5.5,6.7,8C58.3,128.4,28.6,129.4,23.6,129.3z"/>
<path class="st1" d="M106.6,128c-5.5,0.1-11-0.3-16.4,0.1c-5.5,0.3-11,0.4-16.4,0.9c-0.4-0.7,0.2-1,0.5-1.3c2-2.5,4-5,5.9-7.5
	c0.5-0.7,1.1-1,2.1-1c3.8,0,7.6,0,11.4-0.1c1,0,1.9,0.2,2.7,0.8c3.5,2.4,6.8,5,10.2,7.6C106.5,127.5,106.5,127.7,106.6,128z"/>
<path class="st2" d="M81.5,113.4c-0.6-2.3-0.6-2.4-3.2-1.7c-7,1.8-13.9,1.6-21,0.4c-1.9-0.3-3.5-1.2-5.2-1.8
	c-0.1-1.5-0.2-3.1-0.4-4.8c9.9,3.2,19.8,2.9,29.7,0.2C81.5,108.4,81.5,110.9,81.5,113.4z"/>
<path class="st1" d="M119.1,47.6c-0.7-2-2.4-2.3-3.8-0.8c-0.9,1-1.6,2.1-1.9,3.5c-0.7,2.8-1.4,5.6-2.2,8.4c-0.2,0.6-0.5,1.2-1.2,1.1
	c-0.6,0-0.8-0.6-1-1.1c-0.8-2.3-1.4-4.7-1.9-7.1c-0.3-1.4-0.9-2.6-1.9-3.7c-1.9-2.2-3.7-4.5-5-7.1c-0.3-0.5-0.7-1-1-1.5
	s-0.6-0.6-1.1-0.4c-0.4,0.2-0.8,0.3-1.2,0.5c-4.4,1.7-8.5,4.3-13,5.8c-1,0.3-2,1.2-2.9,0.4c-0.9-0.9,0.2-1.9,0.5-2.8
	c0.5-1.3,1.2-2.5,1-4.1c-4.7,2.2-9.3,4.1-13.8,6.1c-7.4,3.3-15.2,4.1-23.1,5.2c-0.6,0.1-1.3,0.1-1.6-0.5s0.1-1,0.4-1.4
	c0.8-1.2,1.2-2.5,1.7-4.2c-2.3,0.9-4.2,1.7-5.9,2.4C34.6,48.5,29,49.8,23,49.2c-1-0.1-1.8-0.3-2.2-1.4c-0.3-1.1-1.1-1.7-2.3-1.7
	c-1.3,0-1.8,1-2.1,2C15.8,50,15.8,52,16.2,54c0.2,1,0.5,2,1.1,2.9c0.7,0.9,1.4,1.4,2.5,0.7c0.3-0.2,0.5-0.3,0.8-0.4s0.7-0.3,1,0.1
	c0.2,0.2,0.2,0.6,0,0.8c-0.9,1-0.6,2.1-0.4,3.2c0.8,5.4,2.5,10.6,4.5,15.6c2.7,6.8,7,12.5,12.2,17.6c3.2,3.1,7.2,4.8,11.1,6.9
	c6.7,3.5,13.9,4.3,21.2,4.1c5.8-0.2,11.4-1.6,16.8-3.8c5.8-2.3,11-5.5,15.2-10.2c5-5.6,8.5-12.1,10.4-19.4c0.5-2.1,0.9-4.2,1.4-6.3
	c0.4-2.3,0.8-4.6,0.4-6.9c2.7-0.1,4.1-1,4.7-3C119.9,53.2,120,50.4,119.1,47.6z M19.5,54.2c-1.1-0.9-1.3-1.9-1.6-2.8
	c-0.2-0.5,0-0.9,0.5-1c0.5-0.2,0.8,0.2,1,0.6C19.9,51.9,19.8,53,19.5,54.2z M63.8,68.4c1.4-1.8,3.5-2.4,5.3-1.6
	c0.8,0.3,1,0.6,1.6,1.9c-0.2,0.1-0.4,0.2-0.6,0.2c-1.9-0.6-3.7-0.6-5.4,0.8c-0.3,0.3-0.9,0.3-1.2-0.1C63.2,69.2,63.6,68.8,63.8,68.4
	z M47.1,59.4c1-0.1,1.8,0.9,1.8,2.3c0,1.3-0.8,2.3-1.8,2.3c-1.1,0-1.7-1-1.7-2.4C45.4,60.3,46.1,59.4,47.1,59.4z M48.3,79.2
	c-1.2,0.7-2.4,1.4-3.7,1.2c-1.4,0-2.6-0.3-3.7-0.9c-1.2-0.7-1.9-1.7-1.9-3.1c0-1.5,0.8-2.6,2.2-3.1c2.1-0.8,4.3-1.2,6.5-0.4
	c1.4,0.5,2.5,1.5,2.6,3.1C50.4,77.4,49.6,78.5,48.3,79.2z M73.1,80.3c-4.9,1.7-9.8,1.8-14.5-1.1c-0.7-0.4-1.3-1-1.9-1.6
	c-0.3-0.3-0.6-0.6-0.3-0.9c0.3-0.5,0.8-0.4,1.2-0.2c0.3,0.1,0.6,0.4,1,0.5c4.3,2.6,8.9,2.9,13.6,1.5c1.1-0.3,1.9-1.1,2.8-1.8
	c0.9-0.6,1.7-1.2,3.1-0.7C76.8,78.1,75.1,79.6,73.1,80.3z M85.6,61.5c-0.1-1.3,0.7-2.5,1.6-2.5c1-0.1,1.8,0.8,1.8,2
	s-0.7,2.2-1.6,2.3C86.4,63.4,85.6,62.6,85.6,61.5z M95.8,75.4c-1.1,1.3-2.6,1.8-4.4,1.9c-1.5-0.1-3-0.4-4.1-1.6
	c-1.6-1.6-1.4-3.9,0.5-5.1c2.2-1.4,5.7-1.1,7.7,0.5C96.9,72.3,97.1,74,95.8,75.4z M115.2,55c-0.3-1.5-0.3-2.6,0.2-3.7
	c0.2-0.3,0.4-0.7,0.8-0.7c0.4,0,0.6,0.4,0.6,0.8C116.8,52.7,116.5,53.9,115.2,55z"/>
<path class="st3" d="M10.7,171.9c0-1.2-2.7-29.8-3.9-41.7c-0.3-2.7,1.9-5.1,4.6-5.1h110.1c2.7,0,4.8,2.3,4.6,4.9l-2.7,42.3"/>
<g>
	<path id="XMLID_10_" class="st4" d="M71.4,151c0.6-0.7,0.9-1.6,0.8-2.6c-0.8,0-1.8,0.5-2.3,1.2c-0.5,0.6-1,1.6-0.8,2.5
		C69.9,152.3,70.8,151.7,71.4,151z"/>
	<path id="XMLID_9_" class="st4" d="M73.4,157.1c0-0.6,0.2-1.2,0.4-1.6c0.5-1,1.3-1.4,1.3-1.5c-0.9-1.4-2.4-1.6-2.9-1.6
		c-1.2-0.1-2.4,0.7-3,0.7s-1.6-0.7-2.6-0.7c-1.4,0-2.6,0.8-3.3,2c-0.2,0.4-0.4,0.8-0.5,1.2c-0.6,2.4,0.3,5.2,1.5,6.9
		c0.7,1,1.5,2.1,2.5,2.1c1,0,1.4-0.7,2.6-0.7s1.6,0.7,2.6,0.6c1.1,0,1.8-1,2.4-2c0.8-1.1,1.1-2.2,1.1-2.3
		C75.5,160.3,73.4,159.5,73.4,157.1z"/>
</g>
</svg>
