<?xml version="1.0" encoding="utf-8"?>
<!-- Generator: Adobe Illustrator 24.2.3, SVG Export Plug-In . SVG Version: 6.00 Build 0)  -->
<svg version="1.1" id="Layer_1" xmlns="http://www.w3.org/2000/svg" xmlns:xlink="http://www.w3.org/1999/xlink" x="0px" y="0px"
	 viewBox="0 0 180.98 181.17" style="enable-background:new 0 0 180.98 181.17;" xml:space="preserve">
<style type="text/css">
	.st0{fill:#D8D8D8;}
</style>
<g>
	<path class="st0" d="M108.12,1.38H72.55C33.22,1.38,1.03,33.56,1.03,72.9v35.57c0,39.33,32.18,71.52,71.52,71.52h35.57
		c18.84,0,36.02-7.39,48.83-19.41H83.46c-8.59,0-16.68-1.14-24.26-3.41s-14.22-5.69-19.9-10.24s-10.17-10.33-13.46-17.34
		c-3.29-7.01-4.93-15.26-4.93-24.73c0-11.37,1.96-22.02,5.88-31.94S36.11,54.35,43,46.95c6.89-7.39,15.07-13.24,24.54-17.53
		c9.48-4.29,19.71-6.44,30.71-6.44c8.72,0,16.74,1.36,24.07,4.08c7.33,2.72,13.68,6.6,19.05,11.66s9.54,11.09,12.51,18.1
		s4.45,14.82,4.45,23.41c0,8.09-1.04,15.7-3.13,22.84c-2.08,7.14-4.99,13.62-8.72,19.43c-3.73,5.81-8.06,10.9-12.98,15.26
		c-4.93,4.36-10.24,7.87-15.92,10.52l-0.19,0.38h49.81c7.84-11.47,12.44-25.31,12.44-40.17v-35.6
		C179.64,33.56,147.45,1.38,108.12,1.38z"/>
	<path class="st0" d="M52,56.14c-5.43,6.44-9.64,13.74-12.6,21.89c-2.97,8.15-4.45,16.46-4.45,24.92c0,9.87,2.03,18.25,6.08,25.14
		l16.99-78.13C55.87,51.88,53.86,53.93,52,56.14z"/>
	<path class="st0" d="M105.84,144.13l9.95-46.03c0.47-2.17-1.19-4.22-3.41-4.22H66.19c-2.44,0-4.56,1.7-5.07,4.09l-9.09,42.08
		c8.33,5.97,19.06,8.96,32.19,8.96C91.71,149.01,98.92,147.38,105.84,144.13z"/>
	<path class="st0" d="M125.82,129.4c5.5-6,9.89-13.01,13.17-21.04c3.28-8.02,4.93-16.58,4.93-25.68c0-6.82-1.01-13.14-3.03-18.95
		c-0.74-2.14-1.62-4.17-2.63-6.1l-16.49,75.82C123.17,132.16,124.52,130.82,125.82,129.4z"/>
	<path class="st0" d="M127.49,44.49c-3.02-2.42-6.42-4.45-10.2-6.07c-5.75-2.46-12.29-3.7-19.62-3.7c-8.65,0-16.58,1.65-23.81,4.92
		l-8.34,38.09c-0.55,2.52,1.37,4.9,3.94,4.9h44.61c2.96,0,5.52-2.06,6.15-4.95L127.49,44.49z"/>
</g>
</svg>
