<?xml version="1.0" encoding="utf-8"?>
<!-- Generator: Adobe Illustrator 24.2.3, SVG Export Plug-In . SVG Version: 6.00 Build 0)  -->
<svg version="1.1" id="Layer_1" xmlns="http://www.w3.org/2000/svg" xmlns:xlink="http://www.w3.org/1999/xlink" x="0px" y="0px"
	 viewBox="0 0 264.7 240.7" style="enable-background:new 0 0 264.7 240.7;" xml:space="preserve">
<style type="text/css">
	.st0{fill:#585858;}
	.st1{fill-rule:evenodd;clip-rule:evenodd;fill:#585858;}
	.st2{fill-rule:evenodd;clip-rule:evenodd;fill:#FFFFFF;}
	.st3{fill-rule:evenodd;clip-rule:evenodd;fill:#9C9C9C;}
	.st4{fill:#FFFFFF;}
</style>
<g>
	<g>
		<polyline class="st0" points="335,135.9 318.4,202.6 346.3,202.6 350.4,138.2 		"/>
	</g>
	<g>
		<path class="st0" d="M350.2,138.6c-0.2-0.1-0.3-0.1-0.4-0.1l-16.5-2c-0.7,0-1-0.5-1.2-0.8c-0.3-0.5-0.9-1.8,2.6-7.4
			c0.6-1,2.3-0.7,5.6,0.1c0.4,0.1,0.7,0.2,0.9,0.2l0,0c1.9,0.3,3.7,0.7,5.6,1c1.6,0.3,3.3,0.6,5,0.9h0.1c1.1,0.2,2.3,0.4,2.1,2.2
			l-0.3,2.9c0,0.1,0,0.3,0,0.5c0,0.5,0,1.1-0.2,1.5c0,0.3-0.2,0.5-0.4,0.7c-0.3,0.2-0.7,0.3-1.2,0.3S350.8,138.5,350.2,138.6z
			 M335.6,128.4c-2.9,4.8-2.6,6-2.5,6.2c0,0.1,0.1,0.2,0.3,0.2l16.5,2c0.2,0,0.3,0.1,0.5,0.1c1.4,0.3,1.8,0.2,1.9,0.2l0.1-0.2
			c0.1-0.2,0.1-0.6,0.1-1c0-0.2,0-0.4,0-0.6l0.3-2.9c0-0.6,0.1-0.7-1.2-0.9h-0.1c-1.6-0.3-3.3-0.6-5-0.9c-1.9-0.3-3.7-0.7-5.6-1l0,0
			c-0.2,0-0.6-0.1-1-0.2c-0.7-0.2-2.8-0.7-3.8-0.7C335.9,128.7,335.8,128.8,335.6,128.4z M350.9,129.8c-0.2,0-0.4-0.1-0.5-0.1
			c-3.3-0.6-6.6-1.2-9.9-1.8c-0.1,0-0.4-0.1-0.7-0.1c-1.7-0.2-3.1-0.4-3.5-1.2c-0.6-1-1-2.2-1.3-3.4c-0.3-1.1-0.6-2.2-0.9-3.3
			c-0.4-1.9-0.9-3.8-1.6-5.7c-0.2-0.4-0.4-0.9-0.7-1.4c-0.9-1.8-2.3-4.5,0-6l0,0c2.5-1.7,4.5,0.4,5.9,1.9c0.1,0.1,0.2,0.2,0.3,0.3
			c0.3-2.7,0.5-5.4,0.7-8.2c0.1-0.4,0.1-1,0.1-1.5c0.1-2.1,0.1-4.3,1.3-6c0.7-1,1.9-1.4,3.1-1.1c1.5,0.4,2.7,1.8,2.9,3.2
			c0.1,1,0,2.1-0.1,3.2c-0.1,0.3-0.1,0.5-0.1,0.7c0.2-0.7,0.3-1.5,0.5-2.2v-0.2c0.4-1.9,1-4.8,4-4.7c1.1,0,2,0.4,2.5,1.1
			c1.1,1.5,0.5,3.9,0.2,5.4c-0.1,0.6-0.3,1.1-0.4,1.7c0-0.1,0.1-0.3,0.1-0.4c0.6-1.8,1.5-2.9,2.6-3.3c0.9-0.4,1.8-0.3,2.9,0.3
			c2.7,1.5,1.5,4,0.8,5.7c-0.1,0.3-0.2,0.5-0.3,0.7c-0.4,0.8-0.7,1.7-1.1,2.5c-0.2,0.5-0.4,0.9-0.6,1.4c0.2-0.3,0.5-0.6,0.7-0.9
			c0.1-0.2,0.3-0.3,0.4-0.5c0.7-0.9,1.6-2.1,2.9-2.5c1.4-0.4,3.1,0.4,3.8,1.8c0.8,1.6-0.2,3.1-0.9,4.2l-0.1,0.2
			c-2.1,3.3-3.9,6.9-5.6,10.4c-0.8,1.7-1.6,3.4-2.5,5c-0.6,1-1.2,2.2-1.9,3.4c0,0.1-0.1,0.2-0.1,0.3c-0.2,0.5-0.5,1.1-1,1.3
			c-0.2,0.1-0.4,0.1-0.7,0.1C351.7,130.1,351.2,129.9,350.9,129.8z M361.4,104.6c-0.9,0.3-1.7,1.3-2.3,2.1c-0.1,0.2-0.3,0.3-0.4,0.5
			c-0.5,0.5-0.9,1.1-1.3,1.6c-0.7,0.8-1.3,1.5-1.9,2.3l-1.9,2.3l0.9-2.8c0.5-1.8,1.3-3.5,2-5.1c0.4-0.9,0.8-1.7,1.1-2.5
			c0.1-0.2,0.2-0.5,0.3-0.7c0.9-2.1,1.4-3.4-0.2-4.2c-0.7-0.4-1.4-0.5-1.9-0.3c-0.7,0.3-1.4,1.2-1.9,2.6c-0.7,1.9-1.4,3.8-2.2,5.6
			c-0.3,0.7-0.5,1.3-0.8,2l-1.2,0c0.4-2.1,0.9-4.1,1.4-6.2c0.2-1,0.5-2,0.7-3c0.3-1.2,0.8-3.4,0-4.4c-0.3-0.4-0.9-0.6-1.6-0.6
			c-1.8-0.1-2.3,1.5-2.8,3.7v0.2c-0.6,3.1-1.3,5.8-1.9,8.5l-1.3,5.5l0.1-5.7c0.1-1.5,0.1-3,0.2-4.5v-1.1c0-0.5,0.1-1.1,0.1-1.6
			c0.1-1,0.2-2.1,0.1-3c-0.1-1-1-1.9-2-2.2c-0.5-0.1-1.3-0.1-1.8,0.7c-1,1.4-1.1,3.5-1.1,5.3c0,0.6-0.1,1.1-0.1,1.6
			c-0.2,3.2-0.4,6.3-0.8,9.4l-0.1,1.1l-0.9-0.7c-0.4-0.3-0.8-0.7-1.2-1.2c-1.6-1.7-2.8-2.7-4.3-1.7c-1.3,0.8-0.7,2.3,0.4,4.4
			c0.3,0.5,0.5,1,0.7,1.5c0.7,1.9,1.2,3.9,1.7,5.8c0.3,1.1,0.6,2.2,0.9,3.3c0.3,1,0.6,2.1,1.1,3.1c0.2,0.3,1.9,0.4,2.5,0.5
			c0.3,0,0.6,0.1,0.8,0.1c3.3,0.6,6.6,1.2,9.9,1.8c0.2,0,0.4,0,0.6,0.1c0.3,0.1,1,0.3,1.2,0.2c0.2-0.1,0.4-0.5,0.5-0.7
			c0.1-0.1,0.1-0.2,0.2-0.3c0.7-1.2,1.3-2.4,1.8-3.4c0.9-1.7,1.7-3.4,2.5-5c1.8-3.6,3.6-7.2,5.7-10.6l0.1-0.2c0.7-1,1.4-2.1,0.9-3
			c-0.3-0.6-1.2-1.2-2-1.2C361.7,104.5,361.6,104.5,361.4,104.6z"/>
	</g>
</g>
<path class="st1" d="M76.7,113.5c-3.7-2.4-6.2-5.9-8.3-9.7c-0.2-0.3-0.4-0.6-0.5-1c-0.6-1.3-0.2-1.9,1.2-1.7
	c1.6,0.2,3.1,0.2,4.7,0.2c0.8,0,1.6,0.1,2.4-0.1c0.3-0.6-0.3-1-0.5-1.4c-2.1-3.8-3.3-7.9-4.6-12c-0.2-0.5-0.3-1.1,0.2-1.4
	c0.5-0.4,1.1-0.2,1.7,0c2.9,1.1,5.9,1.2,8.9,1.5c0.2-0.7-0.3-1-0.6-1.4c-1.6-2.1-2.5-4.6-3.4-7c-0.2-0.5-0.4-1,0-1.5
	s0.9-0.2,1.4-0.1c7.5,2.1,15.1,2.2,22.5-0.5c2.1-0.8,4.1-1.6,6.2-2.5c6.3-2.7,12.9-3.8,19.6-4.6c5.5-0.7,10.8-0.5,16.1,1.2
	c1.4,0.4,2.8,1,4.2,1.5c0.1-1,0.2-2,0.4-2.9c0.3-1,0.9-1.2,1.6-0.5c1,1,1.9,2.1,2.8,3.2c0.5,0.6,0.9,0.8,1.7,0.3
	c0.7-0.5,1.5-0.9,2.4-1c1.1-0.2,1.5,0.3,1.3,1.4c0,0.1-0.1,0.1-0.1,0.2c-0.3,1.3-1.4,2.6-0.9,3.8c0.5,1,1.9,1.5,2.9,2.3
	c8.9,7.6,15.3,16.7,17.7,28.3c0.1,0.7,0.2,1.5,0.3,2.2c0,1.1,0,2.1,1.6,2.3c0.9,0.1,1.6,1.1,1.9,2c1.3,3.6,1.2,7.1-0.2,10.7
	c-0.5,1.4-1.5,2.5-3,2.8c-1.4,0.4-1.5,1.1-1.6,2.4c-0.7,11.6-4.3,22.1-12.4,30.7c-4.7,5-10.5,8.4-16.9,10.8c-3,1.1-2.4,0.5-2.5,3.5
	c0,1.3-0.3,2.8,0.2,3.9c0.5,1.2,2.2,1.2,3.4,1.7c9.4,4,17.6,9.8,25,16.8c4.9,4.7,8.7,10.3,11.7,16.4c2.9,5.9,5.5,12,7.4,18.3
	c0.7,2.4,1.3,4.9,1.6,7.4c0.1,0.9,0.1,1.4-1.3,1.3c-5.7-0.5-11.4-0.3-17.1,0c-4.3,0.2-8.6-0.3-12.9-0.4c-16.5-0.3-33-0.2-49.4,0
	c-14.8,0.1-29.5,0.6-44.3,0.5c-1.7,0-3.4-0.1-5.1-0.5c-1.4-0.3-1.8-0.8-1.6-2.2c2.2-19.2,9.3-35.8,25.8-47.3
	c6.6-4.6,13.6-8.5,21.2-11.2c1.8-0.6,1.7-0.6,1.8-2.4c0-1.3,0-2.5,0.2-3.8c0.1-1-0.1-1.6-1.1-2c-2-0.8-3.9-1.9-5.8-2.8
	c-3.7-1.7-6.8-4.3-9.5-7.2c-3.7-4-6.9-8.4-9.2-13.3c-2.5-5.6-4.3-11.5-5.1-17.7c0-0.4-0.1-0.7-0.1-1.1c0-1.3-0.3-2.1-1.9-2.2
	c-1.9-0.2-2.7-1.9-3.3-3.6C74.2,121,74.7,116.6,76.7,113.5z"/>
<path class="st2" d="M183.3,216.3c-37.8,0.4-75.6,1.3-113.5,2.2c-0.4-0.4-0.1-0.8,0.1-1.2c1.7-3.7,3.7-7.2,6.2-10.5
	c0.5-0.6,0.9-0.9,1.8-0.9c6.1,0.2,12.2,0.4,18.2,0.6c20.1,0.4,40.2-0.2,60.3-0.4c6.3-0.1,12.6-0.1,18.9-0.2c1.5,0,2.5,0.4,3.2,1.7
	c1.3,2.4,2.8,4.7,4.2,7.1C183.1,215.1,183.4,215.6,183.3,216.3z"/>
<path class="st2" d="M192,239.5c-3-0.6-5.9-0.2-8.7-0.2c-9.8,0.3-19.6-0.5-29.4-0.5c-14.1-0.1-28.2,0-42.3,0.2
	c-14.3,0.3-28.6,0.5-43,0.7c-1.6,0-3.2-0.2-5-0.6c0.5-2.7,1.1-5.4,1.6-8.1c0.1-0.5,0.4-0.7,0.9-0.7c0.9,0.1,1.8,0.1,2.7,0.1
	c20.9,0.1,41.7-0.6,62.5-0.7c11-0.1,22-0.2,32.9-0.4c7.6-0.1,15.1-0.3,22.7-0.3c1.8,0,1.8,0,2.5,1.7
	C190.6,233.6,191.4,236.4,192,239.5z"/>
<path class="st2" d="M142.6,181.5c0.2,1-0.1,1.8-0.7,2.6c-3,3.7-5.9,7.4-8.6,11.3c-1.5,2-3,4-5.2,5.6c-1-1-2-2-2.9-3
	c-2.1-2.3-4.2-4.6-6.3-6.9c-1.9-1.9-3-4.4-5-6.3c-0.5-0.4-0.6-1-0.6-1.6c0-1.6,0-3.3,0-4.9c0.7-0.3,1.3-0.1,1.9,0.1
	c7.7,2.5,15.4,2.5,23.3,0.8c0.2,0,0.4-0.1,0.7-0.1C142.1,178.6,142.2,178.6,142.6,181.5z"/>
<path class="st2" d="M84.7,197.4c4.1-3.8,8.5-6.6,12.9-9.2c0.6-0.4,1.2-0.5,1.9-0.5c4.2,0,8.5,0.1,12.7-0.3c0.7-0.1,1.2,0.1,1.5,0.7
	c1.8,3,4.2,5.5,6.7,8C119.4,196.5,89.7,197.5,84.7,197.4z"/>
<path class="st2" d="M167.7,196.1c-5.5,0.1-11-0.3-16.4,0.1c-5.5,0.3-11,0.4-16.4,0.9c-0.4-0.7,0.2-1,0.5-1.3c2-2.5,4-5,5.9-7.5
	c0.5-0.7,1.1-1,2.1-1c3.8,0,7.6,0,11.4-0.1c1,0,1.9,0.2,2.7,0.8c3.5,2.4,6.8,5,10.2,7.6C167.6,195.6,167.6,195.8,167.7,196.1z"/>
<path class="st3" d="M142.6,181.5c-0.6-2.3-0.6-2.4-3.2-1.7c-7,1.8-13.9,1.6-21,0.4c-1.9-0.3-3.5-1.2-5.2-1.8
	c-0.1-1.5-0.2-3.1-0.4-4.8c9.9,3.2,19.8,2.9,29.7,0.2C142.6,176.5,142.6,179,142.6,181.5z"/>
<path class="st2" d="M180.2,115.7c-0.7-2-2.4-2.3-3.8-0.8c-0.9,1-1.6,2.1-1.9,3.5c-0.7,2.8-1.4,5.6-2.2,8.4
	c-0.2,0.6-0.5,1.2-1.2,1.1c-0.6,0-0.8-0.6-1-1.1c-0.8-2.3-1.4-4.7-1.9-7.1c-0.3-1.4-0.9-2.6-1.9-3.7c-1.9-2.2-3.7-4.5-5-7.1
	c-0.3-0.5-0.7-1-1-1.5c-0.3-0.5-0.6-0.6-1.1-0.4c-0.4,0.2-0.8,0.3-1.2,0.5c-4.4,1.7-8.5,4.3-13,5.8c-1,0.3-2,1.2-2.9,0.4
	c-0.9-0.9,0.2-1.9,0.5-2.8c0.5-1.3,1.2-2.5,1-4.1c-4.7,2.2-9.3,4.1-13.8,6.1c-7.4,3.3-15.2,4.1-23.1,5.2c-0.6,0.1-1.3,0.1-1.6-0.5
	s0.1-1,0.4-1.4c0.8-1.2,1.2-2.5,1.7-4.2c-2.3,0.9-4.2,1.7-5.9,2.4c-5.6,2.2-11.2,3.5-17.2,2.9c-1-0.1-1.8-0.3-2.2-1.4
	c-0.3-1.1-1.1-1.7-2.3-1.7c-1.3,0-1.8,1-2.1,2c-0.6,1.9-0.6,3.9-0.2,5.9c0.2,1,0.5,2,1.1,2.9c0.7,0.9,1.4,1.4,2.5,0.7
	c0.3-0.2,0.5-0.3,0.8-0.4c0.3-0.1,0.7-0.3,1,0.1c0.2,0.2,0.2,0.6,0,0.8c-0.9,1-0.6,2.1-0.4,3.2c0.8,5.4,2.5,10.6,4.5,15.6
	c2.7,6.8,7,12.5,12.2,17.6c3.2,3.1,7.2,4.8,11.1,6.9c6.7,3.5,13.9,4.3,21.2,4.1c5.8-0.2,11.4-1.6,16.8-3.8c5.8-2.3,11-5.5,15.2-10.2
	c5-5.6,8.5-12.1,10.4-19.4c0.5-2.1,0.9-4.2,1.4-6.3c0.4-2.3,0.8-4.6,0.4-6.9c2.7-0.1,4.1-1,4.7-3C181,121.3,181.1,118.5,180.2,115.7
	z M80.6,122.3c-1.1-0.9-1.3-1.9-1.6-2.8c-0.2-0.5,0-0.9,0.5-1c0.5-0.2,0.8,0.2,1,0.6C81,120,80.9,121.1,80.6,122.3z M124.9,136.5
	c1.4-1.8,3.5-2.4,5.3-1.6c0.8,0.3,1,0.6,1.6,1.9c-0.2,0.1-0.4,0.2-0.6,0.2c-1.9-0.6-3.7-0.6-5.4,0.8c-0.3,0.3-0.9,0.3-1.2-0.1
	C124.3,137.3,124.7,136.9,124.9,136.5z M108.2,127.5c1-0.1,1.8,0.9,1.8,2.3c0,1.3-0.8,2.3-1.8,2.3c-1.1,0-1.7-1-1.7-2.4
	C106.5,128.4,107.2,127.5,108.2,127.5z M109.4,147.3c-1.2,0.7-2.4,1.4-3.7,1.2c-1.4,0-2.6-0.3-3.7-0.9c-1.2-0.7-1.9-1.7-1.9-3.1
	c0-1.5,0.8-2.6,2.2-3.1c2.1-0.8,4.3-1.2,6.5-0.4c1.4,0.5,2.5,1.5,2.6,3.1C111.5,145.5,110.7,146.6,109.4,147.3z M134.2,148.4
	c-4.9,1.7-9.8,1.8-14.5-1.1c-0.7-0.4-1.3-1-1.9-1.6c-0.3-0.3-0.6-0.6-0.3-0.9c0.3-0.5,0.8-0.4,1.2-0.2c0.3,0.1,0.6,0.4,1,0.5
	c4.3,2.6,8.9,2.9,13.6,1.5c1.1-0.3,1.9-1.1,2.8-1.8c0.9-0.6,1.7-1.2,3.1-0.7C137.9,146.2,136.2,147.7,134.2,148.4z M146.7,129.6
	c-0.1-1.3,0.7-2.5,1.6-2.5c1-0.1,1.8,0.8,1.8,2s-0.7,2.2-1.6,2.3C147.5,131.5,146.7,130.7,146.7,129.6z M156.9,143.5
	c-1.1,1.3-2.6,1.8-4.4,1.9c-1.5-0.1-3-0.4-4.1-1.6c-1.6-1.6-1.4-3.9,0.5-5.1c2.2-1.4,5.7-1.1,7.7,0.5
	C158,140.4,158.2,142.1,156.9,143.5z M176.3,123.1c-0.3-1.5-0.3-2.6,0.2-3.7c0.2-0.3,0.4-0.7,0.8-0.7c0.4,0,0.6,0.4,0.6,0.8
	C177.9,120.8,177.6,122,176.3,123.1z"/>
<g>
	<g>
		<g>
			<path class="st0" d="M259.8,54.7c-2-6.8-6.3-12.8-14.1-16.9c-8.2-4.4-18-6-28-6.3c-10-0.3-19.6,0.7-29,3.1
				c-8.4,2.2-15.2,6-19.7,11.8c-5.3,6.8-7.1,15.1-5.2,22.8c0.7,2.9,1.9,5.8,4.5,8c1.3,1.1,2.8,2,4.6,2.6c0.3,0.1,0.6,0.2,0.9,0.3
				c0,0.4,0.1,0.8,0.1,1.3c0,2.3-0.6,4.5,0.4,6.8c0.2,0.5,1.1,0.5,1.5,0.1c1.9-2,5-3.2,7.8-4.4c0.2-0.1,0.5-0.2,0.7-0.3
				c1.1,0.4,2.1,0.8,3.2,1.2c2.1,0.7,4.6,0.9,6.8,1.2c2.5,0.4,5,0.7,7.6,0.8c10.2,0.7,20.6,0.1,30.3-2.4c8.2-2.1,16.1-5.5,21.5-10.5
				C259.8,68.3,261.9,61.6,259.8,54.7z M254.5,70.6c-4.5,5.3-11.7,9-19.5,11.4c-9.3,2.9-19.4,3.8-29.4,3.5
				c-5.4-0.2-11.1-0.7-16.3-1.9c-1-0.2-2.1-0.6-3.2-0.9c0,0-1.2-0.4-1.8-0.7c0,0,0,0,0,0c0,0-0.1,0-0.1,0c-0.7,0.3-2.2,1.2-2.3,1.1
				c-2.4,1-4.8,2.1-6.6,3.7c-0.7-1.6-0.3-7.3-0.6-7.3c0,0.1,0.1-0.5,0.1-0.4c-1.7-0.6-4.4-1.2-5.6-2.4c-2.3-2.2-3.4-4.9-4-7.6
				c-1.5-6.5-0.3-13.4,3.4-19.4c3.7-5.9,9.5-10.4,17.6-13c7.7-2.4,16.5-3.9,24.9-4c9.6-0.1,19.5,0.6,28.2,3.8
				c8.3,3.1,14.2,8,17.1,14.5C259.5,57.6,259.7,64.5,254.5,70.6z"/>
			<path class="st0" d="M234.9,38c-0.2,0-0.2,0.2,0,0.2c9.9,0.6,18.4,8,18.2,15.3c0,0.4,0.8,0.4,0.8,0
				C254.2,46.2,245.3,38.1,234.9,38z"/>
			<path class="st0" d="M174.6,75.4c-5-2.5-6.3-6.9-6.6-11.1c0-0.2-0.4-0.2-0.4,0c-0.8,4.3,1.6,9.3,6.5,11.8
				C174.7,76.3,175.2,75.7,174.6,75.4z"/>
		</g>
	</g>
	<g>
		<path class="st0" d="M187.4,46.8c0-0.2,0.1-0.3,0.2-0.4c0.1-0.1,0.2-0.1,0.4-0.1c0.1,0,0.3,0.1,0.4,0.2c0.1,0.1,0.2,0.3,0.2,0.5
			V47c-0.1,0.7-0.3,1.4-0.5,2.2c-0.2,0.7-0.5,1.4-0.7,2.1c-0.2,0.6-0.5,1.3-0.7,2c-0.2,0.7-0.5,1.3-0.8,1.9
			c-0.2,0.2-0.3,0.3-0.5,0.3c-0.2,0-0.4-0.1-0.6-0.4c-0.2-0.5-0.4-1.1-0.6-1.5c-0.2-0.5-0.3-0.9-0.5-1.4c-0.2-0.4-0.3-0.9-0.5-1.3
			s-0.3-0.9-0.5-1.3c-0.1,0.4-0.2,0.7-0.4,1.1c-0.1,0.4-0.3,0.7-0.4,1.1c-0.2,0.6-0.4,1.2-0.7,1.8c-0.2,0.6-0.5,1.2-0.8,1.7
			c-0.2,0.2-0.3,0.3-0.5,0.3c-0.2,0-0.4-0.1-0.6-0.4c-0.2-0.9-0.5-1.7-0.8-2.6s-0.6-1.7-0.9-2.5c-0.2-0.4-0.3-0.9-0.5-1.4
			c-0.2-0.5-0.4-0.9-0.6-1.3c-0.1-0.1-0.1-0.3-0.1-0.4c0-0.2,0.1-0.3,0.2-0.4s0.2-0.2,0.4-0.2c0.1,0,0.2,0,0.3,0.1
			c0.1,0,0.2,0.1,0.3,0.2c0.2,0.4,0.4,0.9,0.6,1.4c0.2,0.5,0.4,1,0.5,1.4c0.2,0.7,0.5,1.3,0.7,1.9c0.2,0.6,0.4,1.2,0.6,1.8
			c0.1-0.3,0.2-0.6,0.3-0.9s0.2-0.6,0.3-0.9c0.2-0.6,0.5-1.3,0.7-2c0.2-0.7,0.4-1.4,0.6-2c0.1-0.2,0.3-0.4,0.5-0.4
			c0.2,0,0.4,0.1,0.5,0.3c0.2,0.6,0.4,1.1,0.6,1.6c0.2,0.5,0.4,1,0.5,1.5c0.2,0.5,0.4,1,0.5,1.5c0.2,0.5,0.4,1,0.6,1.5
			c0.2-0.4,0.3-0.8,0.4-1.2s0.3-0.8,0.4-1.2c0.2-0.6,0.5-1.3,0.7-2C187.1,48.2,187.3,47.5,187.4,46.8z"/>
		<path class="st0" d="M194,53.4c0.2-0.1,0.4-0.1,0.5,0s0.2,0.1,0.3,0.3c0.1,0.1,0.1,0.3,0,0.4c0,0.2-0.2,0.3-0.3,0.4
			c-0.3,0.2-0.7,0.3-1,0.5c-0.4,0.2-0.7,0.3-1.1,0.3c-0.4,0.1-0.7,0.1-1.1,0c-0.4-0.1-0.7-0.2-1-0.4c-0.4-0.3-0.7-0.7-0.9-1.1
			c-0.2-0.5-0.3-1-0.3-1.5s0.1-1,0.3-1.5s0.5-0.9,0.9-1.1c0.4-0.3,0.9-0.5,1.4-0.7c0.5-0.1,1-0.2,1.6-0.1c0.3,0.1,0.5,0.2,0.7,0.4
			c0.2,0.2,0.4,0.4,0.5,0.6s0.2,0.5,0.2,0.8s-0.1,0.5-0.2,0.8c-0.2,0.3-0.4,0.5-0.7,0.7c-0.3,0.2-0.6,0.3-1,0.5
			c-0.4,0.1-0.7,0.2-1.1,0.3c-0.4,0.1-0.7,0.2-0.9,0.2c-0.1,0-0.2,0-0.3,0c0.1,0.3,0.4,0.6,0.6,0.8s0.6,0.3,1.1,0.3
			c0.3,0,0.7-0.1,1-0.3S193.7,53.5,194,53.4z M191.2,50.3c-0.4,0.2-0.6,0.4-0.8,0.8c-0.2,0.3-0.3,0.7-0.3,1c0.1,0,0.1-0.1,0.2-0.1
			c0.2,0,0.3-0.1,0.5-0.2c0.2-0.1,0.4-0.1,0.5-0.2c0.1,0,0.3-0.1,0.5-0.1c0.2-0.1,0.4-0.1,0.6-0.2s0.4-0.2,0.6-0.3
			c0.2-0.1,0.3-0.2,0.3-0.3c0-0.3-0.1-0.5-0.2-0.6c-0.2-0.1-0.4-0.2-0.6-0.2c-0.2,0-0.5,0-0.7,0.1C191.6,50.2,191.4,50.2,191.2,50.3
			z"/>
		<path class="st0" d="M197.6,54.4c0.2,0.1,0.3,0.3,0.3,0.4c0,0.2,0,0.3-0.1,0.4c-0.1,0.1-0.2,0.2-0.3,0.2s-0.3,0-0.5-0.1
			c-0.1-0.1-0.2-0.1-0.3-0.2c-0.1-0.1-0.2-0.1-0.3-0.2c-0.1-0.1-0.1-0.1-0.2-0.2c0-0.1-0.1-0.2-0.1-0.3v-8c0-0.2,0.1-0.3,0.2-0.4
			c0.1-0.1,0.2-0.1,0.3-0.2c0.1,0,0.2,0,0.4,0.1c0.1,0.1,0.2,0.2,0.3,0.4v7.7c0,0,0.1,0,0.1,0.1C197.5,54.3,197.6,54.4,197.6,54.4z"
			/>
		<path class="st0" d="M203,53.5c0.2-0.1,0.3-0.2,0.5-0.2c0.2,0,0.3,0.1,0.4,0.2s0.1,0.2,0.2,0.4c0,0.2-0.1,0.3-0.2,0.5
			c-0.3,0.3-0.7,0.6-1.1,0.7c-0.4,0.1-0.8,0.2-1.3,0.1c-0.4-0.1-0.8-0.2-1.2-0.5c-0.4-0.3-0.6-0.6-0.8-1.1c-0.1-0.3-0.2-0.5-0.2-0.8
			c0-0.3-0.1-0.6,0-0.8c0-0.5,0.1-0.9,0.3-1.4c0.2-0.5,0.4-0.9,0.8-1.2c0.3-0.3,0.7-0.6,1.1-0.8c0.4-0.2,0.9-0.2,1.4,0
			c0.3,0.1,0.5,0.2,0.7,0.3s0.4,0.3,0.6,0.5c0.1,0.2,0.2,0.3,0.2,0.4c0,0.1,0,0.3-0.1,0.4c-0.1,0.1-0.2,0.2-0.3,0.2
			c-0.1,0-0.3,0-0.5-0.1c-0.3-0.3-0.6-0.5-0.9-0.6c-0.3-0.1-0.6,0-0.8,0.1c-0.3,0.1-0.5,0.3-0.7,0.6c-0.2,0.3-0.3,0.5-0.5,0.9
			c-0.1,0.3-0.2,0.7-0.2,1c0,0.4,0.1,0.7,0.2,1c0.1,0.3,0.3,0.5,0.5,0.6s0.4,0.2,0.6,0.3c0.2,0,0.4,0,0.7-0.1
			C202.7,53.9,202.9,53.7,203,53.5z"/>
		<path class="st0" d="M205.1,51.5c0.1-0.3,0.2-0.6,0.4-0.9c0.2-0.3,0.3-0.6,0.5-0.8c0.2-0.2,0.5-0.4,0.7-0.6
			c0.3-0.2,0.6-0.3,0.9-0.4c0.6-0.1,1-0.1,1.5,0.1c0.4,0.2,0.8,0.5,1,0.9c0.2,0.4,0.4,0.8,0.5,1.3s0.1,1-0.1,1.4
			c-0.1,0.6-0.4,1.1-0.8,1.6c-0.4,0.5-0.8,0.8-1.4,1.1c-0.4,0.2-0.8,0.2-1.2,0.2c-0.4,0-0.7-0.2-1-0.4s-0.6-0.5-0.8-0.8
			c-0.2-0.3-0.4-0.7-0.4-1.1c0-0.3-0.1-0.5,0-0.8c0-0.2,0-0.5,0.1-0.7L205.1,51.5z M206.2,51.9c0,0.2-0.1,0.4-0.1,0.6s0,0.4,0,0.6
			c0,0.3,0.1,0.5,0.2,0.7c0.1,0.2,0.3,0.4,0.5,0.5c0.2,0.1,0.4,0.2,0.6,0.2c0.2,0,0.5-0.1,0.7-0.2c0.3-0.2,0.6-0.4,0.8-0.7
			c0.2-0.3,0.3-0.6,0.4-1c0.1-0.3,0.1-0.6,0-0.9c0-0.3-0.1-0.6-0.3-0.9c-0.2-0.2-0.4-0.4-0.6-0.5c-0.3-0.1-0.6-0.1-0.9,0.1
			c-0.4,0.2-0.7,0.4-0.9,0.7C206.5,51.1,206.3,51.5,206.2,51.9z"/>
		<path class="st0" d="M215.5,51c0,0,0-0.1,0-0.1v-0.2c-0.1-0.3-0.3-0.5-0.5-0.6s-0.5-0.2-0.8-0.2c-0.2,0.1-0.4,0.2-0.6,0.3
			l-0.3,0.4c0,0-0.1,0.1-0.1,0.1s-0.1,0-0.1,0.1v4c0,0.2-0.1,0.4-0.2,0.5c-0.1,0.1-0.3,0.2-0.4,0.2c-0.1,0-0.3-0.1-0.4-0.2
			c-0.1-0.1-0.2-0.3-0.2-0.5v-5.6c0-0.2,0.1-0.3,0.2-0.4s0.2-0.1,0.4-0.1c0.1,0,0.2,0,0.3,0.1c0.1,0.1,0.2,0.2,0.2,0.4
			c0.2-0.1,0.3-0.2,0.6-0.3c0.2-0.1,0.4-0.1,0.7-0.1c0.3,0,0.7,0.1,1.1,0.3c0.4,0.2,0.6,0.4,0.9,0.7c0.1-0.1,0.2-0.2,0.3-0.3
			c0.1-0.1,0.2-0.2,0.4-0.3c0.1-0.1,0.3-0.2,0.4-0.2c0.1-0.1,0.3-0.1,0.4-0.1c0.3,0,0.6,0.1,0.9,0.2s0.5,0.2,0.8,0.4
			c0.2,0.2,0.4,0.4,0.5,0.6c0.1,0.2,0.2,0.5,0.2,0.7c0,0,0,0,0,0c0,0,0,0,0,0c0,0,0,0,0,0c0,0,0,0,0,0v3.9c0,0.2-0.1,0.4-0.2,0.5
			c-0.1,0.1-0.3,0.2-0.4,0.2c-0.1,0-0.3-0.1-0.4-0.2s-0.2-0.3-0.2-0.5v-3.9c-0.1-0.3-0.3-0.6-0.5-0.7c-0.2-0.1-0.4-0.2-0.7-0.2
			c-0.2,0-0.5,0.1-0.7,0.2s-0.4,0.4-0.5,0.7v3.9c0,0.2-0.1,0.4-0.2,0.5c-0.1,0.1-0.3,0.2-0.4,0.2c-0.1,0-0.3-0.1-0.4-0.2
			s-0.2-0.3-0.2-0.5L215.5,51C215.5,51,215.5,51,215.5,51z"/>
		<path class="st0" d="M226.8,53.4c0.2-0.1,0.4-0.1,0.5,0s0.2,0.1,0.3,0.3c0.1,0.1,0.1,0.3,0,0.4c0,0.2-0.2,0.3-0.3,0.4
			c-0.3,0.2-0.7,0.3-1,0.5c-0.4,0.2-0.7,0.3-1.1,0.3c-0.4,0.1-0.7,0.1-1.1,0c-0.4-0.1-0.7-0.2-1-0.4c-0.4-0.3-0.7-0.7-0.9-1.1
			c-0.2-0.5-0.3-1-0.3-1.5s0.1-1,0.3-1.5s0.5-0.9,0.9-1.1c0.4-0.3,0.9-0.5,1.4-0.7c0.5-0.1,1-0.2,1.6-0.1c0.3,0.1,0.5,0.2,0.7,0.4
			c0.2,0.2,0.4,0.4,0.5,0.6s0.2,0.5,0.2,0.8s-0.1,0.5-0.2,0.8c-0.2,0.3-0.4,0.5-0.7,0.7c-0.3,0.2-0.6,0.3-1,0.5
			c-0.4,0.1-0.7,0.2-1.1,0.3c-0.4,0.1-0.7,0.2-0.9,0.2c-0.1,0-0.2,0-0.3,0c0.1,0.3,0.4,0.6,0.6,0.8s0.6,0.3,1.1,0.3
			c0.3,0,0.7-0.1,1-0.3S226.5,53.5,226.8,53.4z M224,50.3c-0.4,0.2-0.6,0.4-0.8,0.8c-0.2,0.3-0.3,0.7-0.3,1c0.1,0,0.1-0.1,0.2-0.1
			c0.2,0,0.3-0.1,0.5-0.2c0.2-0.1,0.4-0.1,0.5-0.2c0.1,0,0.3-0.1,0.5-0.1c0.2-0.1,0.4-0.1,0.6-0.2s0.4-0.2,0.6-0.3
			c0.2-0.1,0.3-0.2,0.3-0.3c0-0.3-0.1-0.5-0.2-0.6c-0.2-0.1-0.4-0.2-0.6-0.2c-0.2,0-0.5,0-0.7,0.1C224.4,50.2,224.2,50.2,224,50.3z"
			/>
		<path class="st0" d="M234.2,49.8c-0.1-0.1-0.2-0.2-0.2-0.4c0-0.1,0.1-0.3,0.2-0.4c0.1-0.1,0.3-0.2,0.5-0.2h0.8v-2.3
			c0-0.2,0.1-0.3,0.2-0.4s0.2-0.1,0.4-0.1c0.1,0,0.2,0,0.4,0.1c0.1,0.1,0.2,0.2,0.2,0.4v2.3h1.4c0.2,0,0.3,0.1,0.4,0.2
			c0.1,0.1,0.1,0.2,0.1,0.4c0,0.1,0,0.3-0.1,0.4c-0.1,0.1-0.2,0.2-0.4,0.2h-1.3c0,0.7,0,1.5,0,2.3c0,0.8,0,1.5,0,2.3
			c0,0.2-0.1,0.4-0.2,0.5c-0.1,0.1-0.3,0.2-0.4,0.2c-0.1,0-0.3-0.1-0.4-0.2c-0.1-0.1-0.2-0.3-0.2-0.5c0-0.7,0-1.5,0-2.3s0-1.6,0-2.3
			h-0.8C234.4,50,234.3,49.9,234.2,49.8z"/>
		<path class="st0" d="M238.9,51.5c0.1-0.3,0.2-0.6,0.4-0.9c0.2-0.3,0.3-0.6,0.5-0.8c0.2-0.2,0.5-0.4,0.7-0.6
			c0.3-0.2,0.6-0.3,0.9-0.4c0.6-0.1,1-0.1,1.5,0.1c0.4,0.2,0.8,0.5,1,0.9c0.2,0.4,0.4,0.8,0.5,1.3s0.1,1-0.1,1.4
			c-0.1,0.6-0.4,1.1-0.8,1.6c-0.4,0.5-0.8,0.8-1.4,1.1c-0.4,0.2-0.8,0.2-1.2,0.2c-0.4,0-0.7-0.2-1-0.4s-0.6-0.5-0.8-0.8
			c-0.2-0.3-0.4-0.7-0.4-1.1c0-0.3-0.1-0.5,0-0.8c0-0.2,0-0.5,0.1-0.7L238.9,51.5z M240,51.9c0,0.2-0.1,0.4-0.1,0.6s0,0.4,0,0.6
			c0,0.3,0.1,0.5,0.2,0.7c0.1,0.2,0.3,0.4,0.5,0.5c0.2,0.1,0.4,0.2,0.6,0.2c0.2,0,0.5-0.1,0.7-0.2c0.3-0.2,0.6-0.4,0.8-0.7
			c0.2-0.3,0.3-0.6,0.4-1c0.1-0.3,0.1-0.6,0-0.9c0-0.3-0.1-0.6-0.3-0.9c-0.2-0.2-0.4-0.4-0.6-0.5c-0.3-0.1-0.6-0.1-0.9,0.1
			c-0.4,0.2-0.7,0.4-0.9,0.7C240.3,51.1,240.1,51.5,240,51.9z"/>
		<path class="st0" d="M180.7,66.6c0,0,0-0.1,0-0.1v-0.2c-0.1-0.3-0.3-0.5-0.5-0.6s-0.5-0.2-0.8-0.2c-0.2,0.1-0.4,0.2-0.6,0.3
			l-0.3,0.4c0,0-0.1,0.1-0.1,0.1s-0.1,0-0.1,0.1v4c0,0.2-0.1,0.4-0.2,0.5c-0.1,0.1-0.3,0.2-0.4,0.2c-0.1,0-0.3-0.1-0.4-0.2
			c-0.1-0.1-0.2-0.3-0.2-0.5v-5.6c0-0.2,0.1-0.3,0.2-0.4s0.2-0.1,0.4-0.1c0.1,0,0.2,0,0.3,0.1c0.1,0.1,0.2,0.2,0.2,0.4
			c0.2-0.1,0.3-0.2,0.6-0.3c0.2-0.1,0.4-0.1,0.7-0.1c0.3,0,0.7,0.1,1.1,0.3c0.4,0.2,0.6,0.4,0.9,0.7c0.1-0.1,0.2-0.2,0.3-0.3
			c0.1-0.1,0.2-0.2,0.4-0.3c0.1-0.1,0.3-0.2,0.4-0.2c0.1-0.1,0.3-0.1,0.4-0.1c0.3,0,0.6,0.1,0.9,0.2s0.5,0.2,0.8,0.4
			c0.2,0.2,0.4,0.4,0.5,0.6c0.1,0.2,0.2,0.5,0.2,0.7c0,0,0,0,0,0c0,0,0,0,0,0c0,0,0,0,0,0c0,0,0,0,0,0v3.9c0,0.2-0.1,0.4-0.2,0.5
			c-0.1,0.1-0.3,0.2-0.4,0.2c-0.1,0-0.3-0.1-0.4-0.2s-0.2-0.3-0.2-0.5v-3.9c-0.1-0.3-0.3-0.6-0.5-0.7c-0.2-0.1-0.4-0.2-0.7-0.2
			c-0.2,0-0.5,0.1-0.7,0.2s-0.4,0.4-0.5,0.7v3.9c0,0.2-0.1,0.4-0.2,0.5c-0.1,0.1-0.3,0.2-0.4,0.2c-0.1,0-0.3-0.1-0.4-0.2
			s-0.2-0.3-0.2-0.5L180.7,66.6C180.7,66.6,180.7,66.6,180.7,66.6z"/>
		<path class="st0" d="M191.4,64.5c0.1-0.1,0.2-0.2,0.3-0.3c0.1-0.1,0.2-0.1,0.3-0.1c0.2,0,0.3,0.1,0.4,0.2c0.1,0.1,0.2,0.3,0.2,0.5
			c-0.2,0.8-0.5,1.5-0.8,2.3c-0.3,0.7-0.6,1.4-1,2.1c-0.4,0.7-0.7,1.4-1.1,2.1c-0.4,0.7-0.8,1.4-1.2,2.1c-0.1,0.1-0.2,0.2-0.3,0.2
			c-0.1,0-0.2,0.1-0.3,0.1c-0.1,0-0.3-0.1-0.4-0.2s-0.2-0.3-0.2-0.4c0,0,0-0.1,0-0.1s0-0.1,0-0.1c0.3-0.6,0.6-1.2,1-1.7
			s0.7-1.1,1-1.7c-0.4-0.3-0.7-0.6-1-0.9c-0.3-0.3-0.6-0.7-0.8-1c-0.2-0.4-0.5-0.7-0.6-1.2c-0.2-0.4-0.3-0.9-0.5-1.4
			c0-0.2,0.1-0.4,0.2-0.6c0.1-0.1,0.2-0.2,0.4-0.2c0.1,0,0.2,0,0.4,0.1c0.1,0.1,0.2,0.2,0.2,0.4c0.1,0.4,0.2,0.8,0.4,1.1
			s0.3,0.7,0.5,0.9c0.2,0.3,0.4,0.6,0.7,0.8c0.2,0.3,0.5,0.5,0.8,0.8c0.3-0.6,0.6-1.2,0.9-1.9C191,65.9,191.3,65.2,191.4,64.5z"/>
		<path class="st0" d="M199,64.4c0.1-0.1,0.2-0.1,0.4-0.1c0.1,0,0.2,0,0.4,0.1c0.1,0.1,0.2,0.2,0.2,0.4v0.1c0.2-0.2,0.5-0.3,0.8-0.4
			c0.3-0.1,0.6-0.1,0.8-0.1c0.4,0,0.7,0.1,1,0.2c0.3,0.2,0.6,0.4,0.8,0.7c0.2,0.3,0.4,0.6,0.6,1c0.1,0.4,0.2,0.8,0.2,1.2
			c0,0.5-0.1,0.9-0.2,1.3c-0.1,0.4-0.4,0.7-0.7,1c-0.3,0.3-0.6,0.5-1.1,0.7c-0.4,0.2-0.9,0.2-1.5,0.2c-0.1,0-0.3,0-0.4,0
			c-0.1,0-0.3,0-0.4,0v3c0,0.2-0.1,0.4-0.2,0.5c-0.1,0.1-0.3,0.2-0.4,0.2c-0.1,0-0.3-0.1-0.4-0.2c-0.1-0.1-0.2-0.3-0.2-0.5v-8.7
			C198.8,64.7,198.9,64.5,199,64.4z M200.1,66.5C200.1,66.5,200.1,66.5,200.1,66.5c-0.1,0.1-0.1,0.1-0.1,0.1v2.7
			c0.1,0,0.3,0.1,0.4,0.1c0.1,0,0.3,0,0.4,0c0.3,0,0.6,0,0.9-0.1c0.3-0.1,0.5-0.2,0.7-0.4c0.2-0.2,0.4-0.4,0.5-0.6
			c0.1-0.2,0.2-0.5,0.2-0.8c0-0.2,0-0.5-0.1-0.7c-0.1-0.2-0.2-0.4-0.3-0.6c-0.1-0.2-0.3-0.3-0.5-0.5c-0.2-0.1-0.4-0.2-0.6-0.2
			c-0.2,0-0.3,0-0.5,0.1s-0.3,0.1-0.4,0.2c-0.1,0.1-0.2,0.2-0.3,0.3S200.2,66.4,200.1,66.5z"/>
		<path class="st0" d="M205.5,67.1c0.1-0.3,0.2-0.6,0.4-0.9c0.2-0.3,0.3-0.6,0.5-0.8c0.2-0.2,0.5-0.4,0.7-0.6
			c0.3-0.2,0.6-0.3,0.9-0.4c0.6-0.1,1-0.1,1.5,0.1c0.4,0.2,0.8,0.5,1,0.9c0.2,0.4,0.4,0.8,0.5,1.3s0.1,1-0.1,1.4
			c-0.1,0.6-0.4,1.1-0.8,1.6c-0.4,0.5-0.8,0.8-1.4,1.1c-0.4,0.2-0.8,0.2-1.2,0.2c-0.4,0-0.7-0.2-1-0.4s-0.6-0.5-0.8-0.8
			c-0.2-0.3-0.4-0.7-0.4-1.1c0-0.3-0.1-0.5,0-0.8c0-0.2,0-0.5,0.1-0.7L205.5,67.1z M206.6,67.5c0,0.2-0.1,0.4-0.1,0.6s0,0.4,0,0.6
			c0,0.3,0.1,0.5,0.2,0.7c0.1,0.2,0.3,0.4,0.5,0.5c0.2,0.1,0.4,0.2,0.6,0.2c0.2,0,0.5-0.1,0.7-0.2c0.3-0.2,0.6-0.4,0.8-0.7
			c0.2-0.3,0.3-0.6,0.4-1c0.1-0.3,0.1-0.6,0-0.9c0-0.3-0.1-0.6-0.3-0.9c-0.2-0.2-0.4-0.4-0.6-0.5c-0.3-0.1-0.6-0.1-0.9,0.1
			c-0.4,0.2-0.7,0.4-0.9,0.7C206.9,66.7,206.7,67.1,206.6,67.5z"/>
		<path class="st0" d="M212.5,65.7c-0.1-0.1-0.2-0.2-0.3-0.3c-0.1-0.1-0.1-0.2-0.1-0.3c0-0.1,0.1-0.3,0.2-0.4
			c0.1-0.1,0.2-0.2,0.4-0.2c0.1,0,0.3,0,0.5,0.1c0.2,0.1,0.4,0.2,0.5,0.3c0.3-0.2,0.6-0.5,0.9-0.6c0.3-0.2,0.6-0.2,1-0.2
			c0.1,0,0.2,0,0.4,0.1c0.2,0,0.4,0.1,0.5,0.2c0.2,0.1,0.3,0.2,0.5,0.4s0.2,0.3,0.2,0.5c0,0.2-0.1,0.3-0.2,0.4s-0.2,0.2-0.4,0.2
			c-0.1,0-0.2,0-0.3-0.1c-0.1-0.1-0.2-0.1-0.2-0.2s-0.2-0.1-0.3-0.2c-0.1-0.1-0.2-0.1-0.3-0.1c-0.1,0-0.3,0-0.4,0.1
			c-0.2,0.1-0.3,0.2-0.5,0.3c-0.2,0.1-0.3,0.2-0.5,0.4c-0.1,0.1-0.3,0.3-0.4,0.4v3.8c0,0.2-0.1,0.4-0.2,0.5
			c-0.1,0.1-0.3,0.2-0.4,0.2c-0.1,0-0.3-0.1-0.4-0.2c-0.1-0.1-0.2-0.3-0.2-0.5v-3.9c0,0,0,0,0-0.1s0,0,0-0.1c0,0,0,0,0-0.1
			s0,0,0-0.1v-0.4C212.6,65.7,212.6,65.7,212.5,65.7z"/>
		<path class="st0" d="M218.4,65.4c-0.1-0.1-0.2-0.2-0.2-0.4c0-0.1,0.1-0.3,0.2-0.4c0.1-0.1,0.3-0.2,0.5-0.2h0.8v-2.3
			c0-0.2,0.1-0.3,0.2-0.4s0.2-0.1,0.4-0.1c0.1,0,0.2,0,0.4,0.1c0.1,0.1,0.2,0.2,0.2,0.4v2.3h1.4c0.2,0,0.3,0.1,0.4,0.2
			c0.1,0.1,0.1,0.2,0.1,0.4c0,0.1,0,0.3-0.1,0.4c-0.1,0.1-0.2,0.2-0.4,0.2h-1.3c0,0.7,0,1.5,0,2.3c0,0.8,0,1.5,0,2.3
			c0,0.2-0.1,0.4-0.2,0.5c-0.1,0.1-0.3,0.2-0.4,0.2c-0.1,0-0.3-0.1-0.4-0.2c-0.1-0.1-0.2-0.3-0.2-0.5c0-0.7,0-1.5,0-2.3s0-1.6,0-2.3
			h-0.8C218.6,65.6,218.5,65.5,218.4,65.4z"/>
		<path class="st0" d="M226,70.7c-0.1,0.1-0.3,0.2-0.4,0.2c-0.1,0-0.3-0.1-0.4-0.2s-0.2-0.3-0.2-0.5v-4.1h-0.3
			c-0.2,0-0.4-0.1-0.5-0.2c-0.1-0.1-0.2-0.2-0.2-0.4c0-0.1,0.1-0.3,0.2-0.4c0.1-0.1,0.3-0.2,0.5-0.2h0.3v-1.6c0-0.3,0.1-0.6,0.2-0.9
			c0.1-0.3,0.3-0.5,0.4-0.7c0.2-0.2,0.4-0.4,0.7-0.5c0.3-0.1,0.5-0.2,0.9-0.2c0.1,0,0.3,0,0.5,0.1c0.2,0,0.4,0.1,0.6,0.2
			c0.2,0.1,0.4,0.2,0.5,0.3s0.2,0.3,0.2,0.5c0,0.2-0.1,0.3-0.2,0.4c-0.1,0.1-0.2,0.2-0.4,0.2c-0.1,0-0.2,0-0.3-0.1
			c-0.1,0-0.2-0.1-0.3-0.1c-0.1,0-0.2-0.1-0.4-0.1c-0.1,0-0.2-0.1-0.4-0.1c-0.2,0-0.5,0.1-0.6,0.3c-0.2,0.2-0.3,0.4-0.3,0.8V65
			c0.3,0,0.6,0,0.9,0c0.3,0,0.6,0,0.9,0c0.2,0,0.3,0.1,0.4,0.2c0.1,0.1,0.1,0.2,0.1,0.4c0,0.2-0.1,0.3-0.2,0.4
			c-0.2,0.1-0.4,0.1-0.6,0.2c-0.2,0-0.5,0-0.7,0c-0.3,0-0.5,0-0.7,0v4.1C226.1,70.5,226.1,70.6,226,70.7z"/>
		<path class="st0" d="M228.9,67.1c0.1-0.3,0.2-0.6,0.4-0.9c0.2-0.3,0.3-0.6,0.5-0.8c0.2-0.2,0.5-0.4,0.7-0.6
			c0.3-0.2,0.6-0.3,0.9-0.4c0.6-0.1,1-0.1,1.5,0.1c0.4,0.2,0.8,0.5,1,0.9c0.2,0.4,0.4,0.8,0.5,1.3s0.1,1-0.1,1.4
			c-0.1,0.6-0.4,1.1-0.8,1.6c-0.4,0.5-0.8,0.8-1.4,1.1c-0.4,0.2-0.8,0.2-1.2,0.2c-0.4,0-0.7-0.2-1-0.4s-0.6-0.5-0.8-0.8
			c-0.2-0.3-0.4-0.7-0.4-1.1c0-0.3-0.1-0.5,0-0.8c0-0.2,0-0.5,0.1-0.7L228.9,67.1z M230,67.5c0,0.2-0.1,0.4-0.1,0.6s0,0.4,0,0.6
			c0,0.3,0.1,0.5,0.2,0.7c0.1,0.2,0.3,0.4,0.5,0.5c0.2,0.1,0.4,0.2,0.6,0.2c0.2,0,0.5-0.1,0.7-0.2c0.3-0.2,0.6-0.4,0.8-0.7
			c0.2-0.3,0.3-0.6,0.4-1c0.1-0.3,0.1-0.6,0-0.9c0-0.3-0.1-0.6-0.3-0.9c-0.2-0.2-0.4-0.4-0.6-0.5c-0.3-0.1-0.6-0.1-0.9,0.1
			c-0.4,0.2-0.7,0.4-0.9,0.7C230.3,66.7,230.1,67.1,230,67.5z"/>
		<path class="st0" d="M237.1,70c0.2,0.1,0.3,0.3,0.3,0.4c0,0.2,0,0.3-0.1,0.4c-0.1,0.1-0.2,0.2-0.3,0.2s-0.3,0-0.5-0.1
			c-0.1-0.1-0.2-0.1-0.3-0.2c-0.1-0.1-0.2-0.1-0.3-0.2c-0.1-0.1-0.1-0.1-0.2-0.2c0-0.1-0.1-0.2-0.1-0.3v-8c0-0.2,0.1-0.3,0.2-0.4
			c0.1-0.1,0.2-0.1,0.3-0.2c0.1,0,0.2,0,0.4,0.1c0.1,0.1,0.2,0.2,0.3,0.4v7.7c0,0,0.1,0,0.1,0.1C237,69.9,237.1,70,237.1,70z"/>
		<path class="st0" d="M238.8,62.4c0-0.2,0.1-0.4,0.2-0.5s0.3-0.2,0.5-0.2s0.4,0.1,0.5,0.2c0.1,0.1,0.2,0.3,0.2,0.5
			c0,0.2-0.1,0.4-0.2,0.5c-0.1,0.1-0.3,0.2-0.5,0.2s-0.4-0.1-0.5-0.2S238.8,62.6,238.8,62.4z M240.1,70.2c0,0.2-0.1,0.4-0.2,0.5
			c-0.1,0.1-0.3,0.2-0.4,0.2c-0.1,0-0.3-0.1-0.4-0.2s-0.2-0.3-0.2-0.5c0-0.9,0-1.8,0-2.8c0-0.9,0-1.9,0-2.8c0-0.2,0.1-0.3,0.2-0.4
			c0.1-0.1,0.2-0.1,0.4-0.1c0.1,0,0.2,0,0.4,0.1c0.1,0.1,0.2,0.2,0.2,0.4c0,0.9,0,1.8,0,2.8C240.1,68.4,240.1,69.3,240.1,70.2z"/>
		<path class="st0" d="M241.8,67.1c0.1-0.3,0.2-0.6,0.4-0.9c0.2-0.3,0.3-0.6,0.5-0.8c0.2-0.2,0.5-0.4,0.7-0.6
			c0.3-0.2,0.6-0.3,0.9-0.4c0.6-0.1,1-0.1,1.5,0.1c0.4,0.2,0.8,0.5,1,0.9c0.2,0.4,0.4,0.8,0.5,1.3s0.1,1-0.1,1.4
			c-0.1,0.6-0.4,1.1-0.8,1.6c-0.4,0.5-0.8,0.8-1.4,1.1c-0.4,0.2-0.8,0.2-1.2,0.2c-0.4,0-0.7-0.2-1-0.4s-0.6-0.5-0.8-0.8
			c-0.2-0.3-0.4-0.7-0.4-1.1c0-0.3-0.1-0.5,0-0.8c0-0.2,0-0.5,0.1-0.7L241.8,67.1z M242.9,67.5c0,0.2-0.1,0.4-0.1,0.6s0,0.4,0,0.6
			c0,0.3,0.1,0.5,0.2,0.7c0.1,0.2,0.3,0.4,0.5,0.5c0.2,0.1,0.4,0.2,0.6,0.2c0.2,0,0.5-0.1,0.7-0.2c0.3-0.2,0.6-0.4,0.8-0.7
			c0.2-0.3,0.3-0.6,0.4-1c0.1-0.3,0.1-0.6,0-0.9c0-0.3-0.1-0.6-0.3-0.9c-0.2-0.2-0.4-0.4-0.6-0.5c-0.3-0.1-0.6-0.1-0.9,0.1
			c-0.4,0.2-0.7,0.4-0.9,0.7C243.2,66.7,243.1,67.1,242.9,67.5z"/>
		<path class="st0" d="M248.5,69.9c0-0.2,0.1-0.4,0.2-0.6c0.2-0.2,0.3-0.2,0.5-0.2c0.2,0,0.4,0.1,0.6,0.2c0.2,0.2,0.2,0.3,0.2,0.6
			c0,0.2-0.1,0.4-0.2,0.5s-0.3,0.2-0.6,0.2c-0.2,0-0.4-0.1-0.5-0.2S248.5,70.1,248.5,69.9z M248.9,62.1c0.1-0.1,0.2-0.1,0.3-0.2
			c0.1,0,0.2,0,0.4,0.1c0.1,0.1,0.2,0.2,0.3,0.4v5c0,0.2-0.1,0.4-0.2,0.5c-0.1,0.1-0.2,0.2-0.4,0.2c-0.1,0-0.3,0-0.4-0.1
			c-0.1-0.1-0.2-0.3-0.2-0.5v-5C248.7,62.3,248.8,62.2,248.9,62.1z"/>
	</g>
</g>
<path class="st0" d="M71.8,240c0-1.2-2.7-29.8-3.9-41.7c-0.3-2.7,1.9-5.1,4.6-5.1h110.1c2.7,0,4.8,2.3,4.6,4.9l-2.7,42.3"/>
<g>
	<path id="XMLID_10_" class="st4" d="M132.5,219.1c0.6-0.7,0.9-1.6,0.8-2.6c-0.8,0-1.8,0.5-2.3,1.2c-0.5,0.6-1,1.6-0.8,2.5
		C131,220.4,131.9,219.8,132.5,219.1z"/>
	<path id="XMLID_9_" class="st4" d="M134.5,225.2c0-0.6,0.2-1.2,0.4-1.6c0.5-1,1.3-1.4,1.3-1.5c-0.9-1.4-2.4-1.6-2.9-1.6
		c-1.2-0.1-2.4,0.7-3,0.7c-0.6,0-1.6-0.7-2.6-0.7c-1.4,0-2.6,0.8-3.3,2c-0.2,0.4-0.4,0.8-0.5,1.2c-0.6,2.4,0.3,5.2,1.5,6.9
		c0.7,1,1.5,2.1,2.5,2.1c1,0,1.4-0.7,2.6-0.7c1.2,0,1.6,0.7,2.6,0.6c1.1,0,1.8-1,2.4-2c0.8-1.1,1.1-2.2,1.1-2.3
		C136.6,228.4,134.5,227.6,134.5,225.2z"/>
</g>
</svg>
